<svg xmlns="http://www.w3.org/2000/svg" viewBox="0 0 351 351"><defs><style>.cls-1{fill:#d7df23;}.cls-1,.cls-17,.cls-18,.cls-20,.cls-22,.cls-3{stroke:#231f20;}.cls-1,.cls-10,.cls-11,.cls-12,.cls-13,.cls-14,.cls-15,.cls-16,.cls-17,.cls-18,.cls-20,.cls-22,.cls-3,.cls-9{stroke-miterlimit:10;}.cls-2{fill:#231f20;}.cls-15,.cls-3,.cls-7{fill:#ffcd05;}.cls-4{fill:#59c09e;}.cls-10,.cls-11,.cls-12,.cls-13,.cls-14,.cls-15,.cls-16,.cls-4,.cls-5,.cls-6,.cls-7,.cls-8,.cls-9{stroke:#151032;}.cls-4,.cls-5,.cls-6,.cls-7,.cls-8{stroke-linecap:round;stroke-linejoin:round;}.cls-5{fill:#21b890;}.cls-14,.cls-6{fill:#fedb4e;}.cls-16,.cls-8{fill:#e1b824;}.cls-9{fill:#7dccbb;}.cls-10{fill:#bee4de;}.cls-11,.cls-19{fill:#e9f5f3;}.cls-12{fill:#fff8dc;}.cls-13{fill:#ffeea7;}.cls-17{fill:#57c09e;}.cls-18,.cls-21{fill:#20b790;}.cls-20{fill:#7dcbbb;}.cls-22{fill:#e0b824;}.cls-23{fill:#fff;}</style></defs><title>avatar2</title><g id="Layer_2" data-name="Layer 2"><g id="avatar2"><g id="background"><rect class="cls-1" x="0.5" y="0.5" width="350" height="350"/></g><g id="eye1"><rect class="cls-2" x="107.95" y="100.76" width="17.38" height="54.91" rx="8.26" ry="8.26"/></g><g id="eye1a"><rect class="cls-3" x="108.8" y="115.68" width="16.53" height="39.98" rx="8.26" ry="8.26"/><rect class="cls-2" x="112.37" y="134.35" width="9.9" height="3.9" rx="1.95" ry="1.95"/><rect class="cls-2" x="112.37" y="134.35" width="9.9" height="3.9" rx="1.95" ry="1.95" transform="translate(253.61 18.98) rotate(90)"/></g><g id="eye2"><rect class="cls-2" x="213.66" y="100.42" width="17.29" height="55.59" rx="8.37" ry="8.37"/></g><g id="eye_2a" data-name="eye 2a"><rect class="cls-3" x="213.66" y="115.51" width="16.73" height="40.33" rx="8.37" ry="8.37"/><rect class="cls-2" x="217.07" y="133.73" width="9.9" height="3.9" rx="1.95" ry="1.95"/><rect class="cls-2" x="217.35" y="133.73" width="9.9" height="3.9" rx="1.95" ry="1.95" transform="translate(357.98 -86.63) rotate(90)"/></g><g id="neck-1-4"><path class="cls-4" d="M259.53,183.8l-54.47-1-.33,32.63,25.47-14.68Z"/><path class="cls-4" d="M180.19,229.57l19.93-11.5.33-32.63Z"/><path class="cls-5" d="M205.06,182.78l-.33,32.63,25.47-14.68Z"/><path class="cls-4" d="M230.2,200.73l-25.47,14.68,28.46,16,26.34-47.64Z"/><path class="cls-4" d="M228.57,234.1l-28.45-16-19.93,11.5Z"/><path class="cls-5" d="M230.2,200.73l-25.47,14.68,28.46,16Z"/></g><g id="neck-1-5"><path class="cls-6" d="M169.62,132.71,141.5,179.32l28.12,16.61V132.71Z"/><path class="cls-7" d="M169.62,224.24v-23l-28.12-16.6Z"/><path class="cls-8" d="M141.5,179.32l28.12,16.61V166.55Z"/><path class="cls-6" d="M169.62,166.55v29.38l28.12-16.61-28.12-46.61Z"/><path class="cls-7" d="M197.74,184.65l-28.12,16.6v23Z"/><path class="cls-8" d="M169.62,166.55v29.38l28.12-16.61Z"/></g><g id="neck-1-4-2" data-name="neck-1-4"><path class="cls-4" d="M79.7,183.8l26.35,47.64,28.45-16L109,200.73Z"/><path class="cls-4" d="M159,229.57l-19.93-11.5-28.45,16Z"/><path class="cls-5" d="M106.05,231.44l28.45-16L109,200.73Z"/><path class="cls-4" d="M109,200.73l25.46,14.68-.33-32.63-54.47,1Z"/><path class="cls-4" d="M138.78,185.44l.33,32.63L159,229.57Z"/><path class="cls-5" d="M109,200.73l25.46,14.68-.34-32.63Z"/></g><g id="neck-1-3"><path class="cls-6" d="M79.7,287.06l54.47,1,.33-32.63L109,270.14Z"/><path class="cls-7" d="M159,241.3l-19.93,11.49-.33,32.63Z"/><path class="cls-8" d="M134.16,288.08l.34-32.63L109,270.14Z"/><path class="cls-6" d="M109,270.14l25.46-14.69-28.45-16L79.7,287.06Z"/><path class="cls-7" d="M110.66,236.76l28.45,16L159,241.3Z"/><path class="cls-8" d="M109,270.14l25.46-14.69-28.45-16Z"/></g><g id="neck-1-2"><path class="cls-4" d="M169,339l28.12-46.61L169,275.73V339Z"/><path class="cls-4" d="M169,247.42v23L197.1,287Z"/><path class="cls-5" d="M197.1,292.34,169,275.73v29.38Z"/><path class="cls-4" d="M169,305.11V275.73l-28.12,16.61L169,339Z"/><path class="cls-4" d="M140.86,287,169,270.41v-23Z"/><path class="cls-5" d="M169,305.11V275.73l-28.12,16.61Z"/></g><g id="neck-1-1"><path class="cls-6" d="M258.63,287.06l-26.35-47.64-28.45,16,25.46,14.69Z"/><path class="cls-7" d="M179.29,241.3l19.93,11.49,28.45-16Z"/><path class="cls-8" d="M232.28,239.42l-28.45,16,25.46,14.69Z"/><path class="cls-6" d="M229.29,270.14l-25.46-14.69.33,32.63,54.47-1Z"/><path class="cls-7" d="M199.54,285.42l-.32-32.63L179.29,241.3Z"/><path class="cls-8" d="M229.29,270.14l-25.46-14.69.33,32.63Z"/></g><g id="circle-neck-2-8"><path class="cls-9" d="M169.42,282.55a46.77,46.77,0,1,0-46.76-46.77A46.77,46.77,0,0,0,169.42,282.55Z"/></g><g id="circle-neck-2-7"><path class="cls-10" d="M169.42,277.26A41.48,41.48,0,1,0,128,235.78,41.48,41.48,0,0,0,169.42,277.26Z"/></g><g id="circle-neck-2-6"><path class="cls-11" d="M169.43,272a36.19,36.19,0,1,0-36.19-36.19A36.19,36.19,0,0,0,169.43,272Z"/></g><g id="circle-neck-2-5"><path class="cls-12" d="M169.42,266.68a30.9,30.9,0,1,0-30.9-30.9A30.91,30.91,0,0,0,169.42,266.68Z"/></g><g id="circle-neck-2-4"><path class="cls-13" d="M169.42,261.39a25.61,25.61,0,1,0-25.61-25.61A25.62,25.62,0,0,0,169.42,261.39Z"/></g><g id="circle-neck-2-3"><path class="cls-14" d="M169.42,256.1a20.33,20.33,0,1,0-20.32-20.32A20.33,20.33,0,0,0,169.42,256.1Z"/></g><g id="circle-neck-2-2"><path class="cls-15" d="M169.42,250.81a15,15,0,1,0-15-15A15,15,0,0,0,169.42,250.81Z"/></g><g id="circle-neck-2-1"><path class="cls-16" d="M169.42,245.52a9.75,9.75,0,1,0-9.74-9.74A9.74,9.74,0,0,0,169.42,245.52Z"/></g><g id="neck1"><rect class="cls-17" x="157.11" y="200.1" width="24.63" height="44.61" rx="12.32" ry="12.32"/><rect class="cls-18" x="157.11" y="200.32" width="24.63" height="25.72" rx="12.32" ry="12.32"/></g><g id="up_face" data-name="up face"><path class="cls-18" d="M167.95,26.3h0a45.64,45.64,0,0,1,45.64,45.64v56.27a0,0,0,0,1,0,0H125.26a0,0,0,0,1,0,0V69A42.69,42.69,0,0,1,167.95,26.3Z"/><path class="cls-19" d="M171,30.4s-39.08-1-42.51,40.57C128.44,71,137.5,37.86,171,30.4Z"/><path class="cls-20" d="M169.55,46.22h0A25.78,25.78,0,0,1,195.33,72v45.43a10.77,10.77,0,0,1-10.77,10.77H154.29a10.77,10.77,0,0,1-10.77-10.77V72.25a26,26,0,0,1,26-26Z"/></g><g id="down_face" data-name="down face"><path class="cls-17" d="M169,215.31h0a43.3,43.3,0,0,1-18.63-4.19,43.87,43.87,0,0,1-25.09-39.53V128.21h88.33v42.5A44.73,44.73,0,0,1,169,215.31Z"/><path class="cls-21" d="M209.46,136.66V165.3s.32,14.37-6.25,24.43c-7.08,10.84-16.71,16.39-27.59,20.61C175.62,210.34,207.59,198,209.46,136.66Z"/><path class="cls-22" d="M169.55,128.65h0a25.78,25.78,0,0,1,25.78,25.78V189.6a10.77,10.77,0,0,1-10.77,10.77H154.29a10.77,10.77,0,0,1-10.77-10.77V154.68a26,26,0,0,1,26-26Z" transform="translate(338.85 329.02) rotate(180)"/></g><g id="line4"><rect class="cls-23" x="125.75" y="171.09" width="14.59" height="0.97" rx="0.48" ry="0.48"/><rect class="cls-23" x="139.31" y="149.69" width="1.03" height="22.38" rx="0.52" ry="0.52"/><circle class="cls-23" cx="139.83" cy="150.17" r="1.79"/></g><g id="line3"><circle class="cls-23" cx="163.28" cy="190.61" r="1.79"/><rect class="cls-23" x="150.13" y="190.1" width="0.94" height="20.44" rx="0.47" ry="0.47"/><rect class="cls-23" x="150.13" y="190.1" width="12.44" height="0.97" rx="0.48" ry="0.48"/></g><g id="line2"><circle class="cls-23" cx="149.45" cy="144.33" r="1.79"/><rect class="cls-23" x="167" y="183.55" width="0.92" height="31.23" rx="0.46" ry="0.46"/><rect class="cls-23" x="149.1" y="183.55" width="18.81" height="1" rx="0.5" ry="0.5"/><rect class="cls-23" x="148.88" y="144.93" width="1.04" height="39.62" rx="0.52" ry="0.52"/></g><g id="line1"><circle class="cls-23" cx="144.75" cy="153.53" r="1.79"/><rect class="cls-23" x="144.31" y="153.53" width="0.88" height="53.72" rx="0.44" ry="0.44"/></g><g id="mouth"><rect class="cls-2" x="151.65" y="159.21" width="35.54" height="7.46" rx="3.73" ry="3.73"/><rect class="cls-23" x="153.68" y="162.44" width="31.5" height="1.02" rx="0.51" ry="0.51"/></g></g></g></svg>