<svg xmlns="http://www.w3.org/2000/svg" viewBox="0 0 181.21 314.42"><defs><style>.cls-1{fill:#231f20;}.cls-14,.cls-2,.cls-6{fill:#ffcd05;}.cls-16,.cls-17,.cls-19,.cls-2,.cls-22{stroke:#231f20;}.cls-10,.cls-11,.cls-12,.cls-13,.cls-14,.cls-15,.cls-16,.cls-17,.cls-19,.cls-2,.cls-22,.cls-8,.cls-9{stroke-miterlimit:10;}.cls-3{fill:#59c09e;}.cls-10,.cls-11,.cls-12,.cls-13,.cls-14,.cls-15,.cls-3,.cls-4,.cls-5,.cls-6,.cls-7,.cls-8,.cls-9{stroke:#151032;}.cls-3,.cls-4,.cls-5,.cls-6,.cls-7{stroke-linecap:round;stroke-linejoin:round;}.cls-4{fill:#21b890;}.cls-13,.cls-5{fill:#fedb4e;}.cls-15,.cls-7{fill:#e1b824;}.cls-8{fill:#7dccbb;}.cls-9{fill:#bee4de;}.cls-10,.cls-18{fill:#e9f5f3;}.cls-11{fill:#fff8dc;}.cls-12{fill:#ffeea7;}.cls-16{fill:#57c09e;}.cls-17,.cls-21{fill:#20b790;}.cls-19{fill:#7dcbbb;}.cls-20{fill:#fff;}.cls-22{fill:#e0b824;}</style></defs><title>Avatar</title><g id="Layer_2" data-name="Layer 2"><g id="Avatar"><g id="eye1"><rect class="cls-1" x="29.13" y="74.96" width="17.38" height="54.91" rx="8.26" ry="8.26"/></g><g id="eye1a"><rect class="cls-2" x="29.98" y="89.88" width="16.53" height="39.98" rx="8.26" ry="8.26"/><rect class="cls-1" x="33.55" y="108.55" width="9.9" height="3.9" rx="1.95" ry="1.95"/><rect class="cls-1" x="33.55" y="108.55" width="9.9" height="3.9" rx="1.95" ry="1.95" transform="translate(148.99 72) rotate(90)"/></g><g id="eye2"><rect class="cls-1" x="134.84" y="74.62" width="17.29" height="55.59" rx="8.37" ry="8.37"/></g><g id="eye_2a" data-name="eye 2a"><rect class="cls-2" x="134.84" y="89.71" width="16.73" height="40.33" rx="8.37" ry="8.37"/><rect class="cls-1" x="138.25" y="107.93" width="9.9" height="3.9" rx="1.95" ry="1.95"/><rect class="cls-1" x="138.53" y="107.93" width="9.9" height="3.9" rx="1.95" ry="1.95" transform="translate(253.36 -33.61) rotate(90)"/></g><g id="neck3"><path class="cls-3" d="M90.61,313.92l28.12-46.61L90.61,250.7v63.22Z"/><path class="cls-3" d="M90.61,222.39v23L118.73,262Z"/><path class="cls-4" d="M118.73,267.31,90.61,250.7v29.38Z"/><path class="cls-3" d="M90.61,280.08V250.7L62.48,267.31l28.13,46.61Z"/><path class="cls-3" d="M62.48,262l28.13-16.6v-23Z"/><path class="cls-4" d="M90.61,280.08V250.7L62.48,267.31Z"/><path class="cls-5" d="M.5,262,55,263l.33-32.63L29.84,245Z"/><path class="cls-6" d="M79.85,216.18l-19.94,11.5-.32,32.63Z"/><path class="cls-7" d="M55,263l.33-32.63L29.84,245Z"/><path class="cls-5" d="M29.84,245,55.3,230.34l-28.45-16L.5,262Z"/><path class="cls-6" d="M31.46,211.65l28.45,16,19.94-11.5Z"/><path class="cls-7" d="M29.84,245,55.3,230.34l-28.45-16Z"/><path class="cls-3" d="M.5,158l26.35,47.64,28.45-16L29.84,174.93Z"/><path class="cls-3" d="M79.85,203.77l-19.94-11.5-28.45,16Z"/><path class="cls-4" d="M26.85,205.64l28.45-16L29.84,174.93Z"/><path class="cls-3" d="M29.84,174.93,55.3,189.61,55,157,.5,158Z"/><path class="cls-3" d="M59.59,159.65l.32,32.62,19.94,11.5Z"/><path class="cls-4" d="M29.84,174.93,55.3,189.61,55,157Z"/><path class="cls-5" d="M90.61,106,62.48,152.65l28.13,16.6V106Z"/><path class="cls-6" d="M90.61,197.56v-23L62.48,158Z"/><path class="cls-7" d="M62.48,152.65l28.13,16.6V139.88Z"/><path class="cls-5" d="M90.61,139.88v29.37l28.12-16.6L90.61,106Z"/><path class="cls-6" d="M118.73,158,90.61,174.57v23Z"/><path class="cls-7" d="M90.61,139.88v29.37l28.12-16.6Z"/><path class="cls-3" d="M180.71,158l-54.47-1-.33,32.63,25.46-14.68Z"/><path class="cls-3" d="M101.37,203.77l19.93-11.5.32-32.62Z"/><path class="cls-4" d="M126.24,157l-.33,32.63,25.46-14.68Z"/><path class="cls-3" d="M151.37,174.93l-25.46,14.68,28.45,16L180.71,158Z"/><path class="cls-3" d="M149.75,208.3l-28.45-16-19.93,11.5Z"/><path class="cls-4" d="M151.37,174.93l-25.46,14.68,28.45,16Z"/><path class="cls-5" d="M180.71,262l-26.35-47.64-28.45,16L151.37,245Z"/><path class="cls-6" d="M101.37,216.18l19.93,11.5,28.45-16Z"/><path class="cls-7" d="M154.36,214.31l-28.45,16L151.37,245Z"/><path class="cls-5" d="M151.37,245l-25.46-14.68.33,32.63,54.47-1Z"/><path class="cls-6" d="M121.62,260.31l-.32-32.63-19.93-11.5Z"/><path class="cls-7" d="M151.37,245l-25.46-14.68.33,32.63Z"/></g><g id="neck2"><path class="cls-8" d="M90.6,256.75A46.77,46.77,0,1,0,43.83,210,46.77,46.77,0,0,0,90.6,256.75Z"/><path class="cls-9" d="M90.6,251.46A41.48,41.48,0,1,0,49.12,210,41.48,41.48,0,0,0,90.6,251.46Z"/><path class="cls-10" d="M90.6,246.17A36.19,36.19,0,1,0,54.41,210,36.19,36.19,0,0,0,90.6,246.17Z"/><path class="cls-11" d="M90.6,240.88A30.9,30.9,0,1,0,59.7,210,30.9,30.9,0,0,0,90.6,240.88Z"/><path class="cls-12" d="M90.6,235.59A25.61,25.61,0,1,0,65,210,25.61,25.61,0,0,0,90.6,235.59Z"/><path class="cls-13" d="M90.6,230.3A20.32,20.32,0,1,0,70.28,210,20.32,20.32,0,0,0,90.6,230.3Z"/><path class="cls-14" d="M90.6,225a15,15,0,1,0-15-15A15,15,0,0,0,90.6,225Z"/><path class="cls-15" d="M90.6,219.72A9.75,9.75,0,1,0,80.86,210,9.75,9.75,0,0,0,90.6,219.72Z"/></g><g id="neck1"><rect class="cls-16" x="78.29" y="174.3" width="24.63" height="44.61" rx="12.32" ry="12.32"/><rect class="cls-17" x="78.29" y="174.52" width="24.63" height="25.72" rx="12.32" ry="12.32"/></g><g id="up_face" data-name="up face"><path class="cls-17" d="M89.13.5h0a45.64,45.64,0,0,1,45.64,45.64v56.27a0,0,0,0,1,0,0H46.44a0,0,0,0,1,0,0V43.19A42.69,42.69,0,0,1,89.13.5Z"/><path class="cls-18" d="M92.13,4.6s-39.08-1-42.51,40.57C49.62,45.17,58.68,12.07,92.13,4.6Z"/><path class="cls-19" d="M90.72,20.42h0a25.78,25.78,0,0,1,25.78,25.78V91.64a10.77,10.77,0,0,1-10.77,10.77H75.47A10.77,10.77,0,0,1,64.7,91.64V46.45a26,26,0,0,1,26-26Z"/></g><g id="down_face" data-name="down face"><path class="cls-16" d="M90.16,189.52h0a43.3,43.3,0,0,1-18.63-4.2,43.87,43.87,0,0,1-25.09-39.53V102.41h88.33v42.5A44.74,44.74,0,0,1,90.16,189.52Z"/><circle class="cls-20" cx="60.97" cy="122.79" r="1.79"/><path class="cls-21" d="M130.64,110.86V139.5s.32,14.37-6.25,24.43c-7.08,10.84-16.72,16.39-27.59,20.61C96.8,184.54,128.77,172.23,130.64,110.86Z"/><path class="cls-22" d="M90.73,102.85h0a25.78,25.78,0,0,1,25.78,25.78V163.8a10.77,10.77,0,0,1-10.77,10.77H75.47A10.77,10.77,0,0,1,64.7,163.8V128.88a26,26,0,0,1,26-26Z" transform="translate(181.21 277.42) rotate(180)"/></g><g id="line4"><rect class="cls-20" x="46.93" y="145.3" width="14.59" height="0.97" rx="0.48" ry="0.48"/><rect class="cls-20" x="60.49" y="123.89" width="1.03" height="22.38" rx="0.52" ry="0.52"/></g><g id="line3"><circle class="cls-20" cx="84.45" cy="164.81" r="1.79"/><rect class="cls-20" x="71.3" y="164.3" width="0.94" height="20.44" rx="0.47" ry="0.47"/><rect class="cls-20" x="71.3" y="164.3" width="12.44" height="0.97" rx="0.48" ry="0.48"/></g><g id="line2"><circle class="cls-20" cx="70.63" cy="118.53" r="1.79"/><rect class="cls-20" x="88.18" y="157.75" width="0.92" height="31.23" rx="0.46" ry="0.46"/><rect class="cls-20" x="70.28" y="157.75" width="18.81" height="1" rx="0.5" ry="0.5"/><rect class="cls-20" x="70.05" y="119.13" width="1.04" height="39.62" rx="0.52" ry="0.52"/></g><g id="line1"><circle class="cls-20" cx="65.92" cy="127.73" r="1.79"/><rect class="cls-20" x="65.49" y="127.73" width="0.88" height="53.72" rx="0.44" ry="0.44"/></g><g id="mouth"><rect class="cls-1" x="72.83" y="133.41" width="35.54" height="7.46" rx="3.73" ry="3.73"/><rect class="cls-20" x="74.86" y="136.64" width="31.5" height="1.02" rx="0.51" ry="0.51"/></g></g></g></svg>