<svg xmlns="http://www.w3.org/2000/svg" viewBox="0 0 351 351"><defs><style>.cls-1{fill:none;}.cls-1,.cls-17,.cls-18,.cls-20,.cls-23,.cls-3{stroke:#231f20;}.cls-1,.cls-10,.cls-11,.cls-12,.cls-13,.cls-14,.cls-15,.cls-16,.cls-17,.cls-18,.cls-20,.cls-23,.cls-3,.cls-9{stroke-miterlimit:10;}.cls-2,.cls-24{fill:#231f20;}.cls-15,.cls-3,.cls-7{fill:#ffcd05;}.cls-4{fill:#59c09e;}.cls-10,.cls-11,.cls-12,.cls-13,.cls-14,.cls-15,.cls-16,.cls-4,.cls-5,.cls-6,.cls-7,.cls-8,.cls-9{stroke:#151032;}.cls-4,.cls-5,.cls-6,.cls-7,.cls-8{stroke-linecap:round;stroke-linejoin:round;}.cls-5{fill:#21b890;}.cls-14,.cls-6{fill:#fedb4e;}.cls-16,.cls-8{fill:#e1b824;}.cls-9{fill:#7dccbb;}.cls-10{fill:#bee4de;}.cls-11,.cls-19{fill:#e9f5f3;}.cls-12{fill:#fff8dc;}.cls-13{fill:#ffeea7;}.cls-17{fill:#57c09e;}.cls-18,.cls-22{fill:#20b790;}.cls-20{fill:#7dcbbb;}.cls-21{fill:#fff;}.cls-23{fill:#e0b824;}.cls-24{font-size:15.32px;font-family:AwesomeSeasonPersonalUse-Regula, Awesome Season Personal Use;}</style></defs><title>green pill</title><g id="background"><rect class="cls-1" x="0.5" y="0.5" width="350" height="350"/></g><g id="eye1"><rect class="cls-2" x="107.95" y="100.76" width="17.38" height="54.91" rx="8.26" ry="8.26"/></g><g id="eye1a"><rect class="cls-3" x="108.8" y="115.68" width="16.53" height="39.98" rx="8.26" ry="8.26"/><rect class="cls-2" x="112.37" y="134.35" width="9.9" height="3.9" rx="1.95" ry="1.95"/></g><g id="eye2"><rect class="cls-2" x="213.66" y="100.42" width="17.29" height="55.59" rx="8.37" ry="8.37"/></g><g id="eye_2a" data-name="eye 2a"><rect class="cls-3" x="213.66" y="115.51" width="16.73" height="40.33" rx="8.37" ry="8.37"/><rect class="cls-2" x="217.07" y="133.73" width="9.9" height="3.9" rx="1.95" ry="1.95"/></g><g id="neck3"><path class="cls-4" d="M295.68,534.12l28.12-46.61L295.68,470.9v63.22Z" transform="translate(-126.25 -194.41)"/><path class="cls-4" d="M295.68,442.6v23l28.12,16.59Z" transform="translate(-126.25 -194.41)"/><path class="cls-5" d="M323.8,487.51,295.68,470.9v29.38Z" transform="translate(-126.25 -194.41)"/><path class="cls-4" d="M295.68,500.28V470.9l-28.12,16.61,28.12,46.61Z" transform="translate(-126.25 -194.41)"/><path class="cls-4" d="M267.56,482.18l28.12-16.59v-23Z" transform="translate(-126.25 -194.41)"/><path class="cls-5" d="M295.68,500.28V470.9l-28.12,16.61Z" transform="translate(-126.25 -194.41)"/><path class="cls-6" d="M205.57,482.15l54.47,1,.34-32.64-25.47,14.69Z" transform="translate(-126.25 -194.41)"/><path class="cls-7" d="M284.92,436.39,265,447.88l-.32,32.63Z" transform="translate(-126.25 -194.41)"/><path class="cls-8" d="M260,483.18l.33-32.64-25.46,14.69Z" transform="translate(-126.25 -194.41)"/><path class="cls-6" d="M234.91,465.23l25.47-14.69-28.46-16-26.35,47.63Z" transform="translate(-126.25 -194.41)"/><path class="cls-7" d="M236.54,431.85l28.44,16,19.94-11.49Z" transform="translate(-126.25 -194.41)"/><path class="cls-8" d="M234.91,465.23l25.47-14.69-28.46-16Z" transform="translate(-126.25 -194.41)"/><path class="cls-4" d="M205.57,378.21l26.35,47.64,28.46-16-25.47-14.69Z" transform="translate(-126.25 -194.41)"/><path class="cls-4" d="M284.92,424,265,412.48l-28.44,16Z" transform="translate(-126.25 -194.41)"/><path class="cls-5" d="M231.92,425.85l28.45-16-25.46-14.69Z" transform="translate(-126.25 -194.41)"/><path class="cls-4" d="M234.91,395.13l25.47,14.69L260,377.19l-54.47,1Z" transform="translate(-126.25 -194.41)"/><path class="cls-4" d="M264.66,379.85l.32,32.63L284.92,424Z" transform="translate(-126.25 -194.41)"/><path class="cls-5" d="M234.91,395.13l25.46,14.69L260,377.19Z" transform="translate(-126.25 -194.41)"/><path class="cls-6" d="M295.68,326.24l-28.12,46.61,28.12,16.61V326.24Z" transform="translate(-126.25 -194.41)"/><path class="cls-7" d="M295.68,417.77v-23l-28.12-16.6Z" transform="translate(-126.25 -194.41)"/><path class="cls-8" d="M267.56,372.85l28.12,16.61V360.08Z" transform="translate(-126.25 -194.41)"/><path class="cls-6" d="M295.68,360.08v29.38l28.12-16.61-28.12-46.61Z" transform="translate(-126.25 -194.41)"/><path class="cls-7" d="M323.8,378.18l-28.12,16.6v23Z" transform="translate(-126.25 -194.41)"/><path class="cls-8" d="M295.68,360.08v29.38l28.12-16.61Z" transform="translate(-126.25 -194.41)"/><path class="cls-4" d="M385.78,378.21l-54.47-1L331,409.82l25.47-14.69Z" transform="translate(-126.25 -194.41)"/><path class="cls-4" d="M306.44,424l19.93-11.49.33-32.63Z" transform="translate(-126.25 -194.41)"/><path class="cls-5" d="M331.31,377.19,331,409.82l25.47-14.69Z" transform="translate(-126.25 -194.41)"/><path class="cls-4" d="M356.45,395.13,331,409.82l28.46,16,26.34-47.64Z" transform="translate(-126.25 -194.41)"/><path class="cls-4" d="M354.82,428.51l-28.45-16L306.44,424Z" transform="translate(-126.25 -194.41)"/><path class="cls-5" d="M356.45,395.13,331,409.82l28.46,16Z" transform="translate(-126.25 -194.41)"/><path class="cls-6" d="M385.78,482.15l-26.34-47.63-28.46,16,25.47,14.69Z" transform="translate(-126.25 -194.41)"/><path class="cls-7" d="M306.44,436.39l19.93,11.49,28.45-16Z" transform="translate(-126.25 -194.41)"/><path class="cls-8" d="M359.44,434.52l-28.46,16,25.47,14.69Z" transform="translate(-126.25 -194.41)"/><path class="cls-6" d="M356.45,465.23,331,450.54l.33,32.64,54.47-1Z" transform="translate(-126.25 -194.41)"/><path class="cls-7" d="M326.7,480.51l-.33-32.63-19.93-11.49Z" transform="translate(-126.25 -194.41)"/><path class="cls-8" d="M356.45,465.23,331,450.54l.33,32.64Z" transform="translate(-126.25 -194.41)"/></g><g id="neck2"><path class="cls-9" d="M295.67,477a46.77,46.77,0,1,0-46.76-46.77A46.77,46.77,0,0,0,295.67,477Z" transform="translate(-126.25 -194.41)"/><path class="cls-10" d="M295.67,471.66a41.48,41.48,0,1,0-41.47-41.48A41.48,41.48,0,0,0,295.67,471.66Z" transform="translate(-126.25 -194.41)"/><path class="cls-11" d="M295.67,466.37a36.19,36.19,0,1,0-36.19-36.19A36.19,36.19,0,0,0,295.67,466.37Z" transform="translate(-126.25 -194.41)"/><path class="cls-12" d="M295.67,461.08a30.9,30.9,0,1,0-30.9-30.9A30.9,30.9,0,0,0,295.67,461.08Z" transform="translate(-126.25 -194.41)"/><path class="cls-13" d="M295.67,455.79a25.61,25.61,0,1,0-25.61-25.61A25.61,25.61,0,0,0,295.67,455.79Z" transform="translate(-126.25 -194.41)"/><path class="cls-14" d="M295.67,450.5a20.32,20.32,0,1,0-20.32-20.32A20.33,20.33,0,0,0,295.67,450.5Z" transform="translate(-126.25 -194.41)"/><path class="cls-15" d="M295.67,445.21a15,15,0,1,0-15-15A15,15,0,0,0,295.67,445.21Z" transform="translate(-126.25 -194.41)"/><path class="cls-16" d="M295.67,439.92a9.74,9.74,0,1,0-9.74-9.74A9.74,9.74,0,0,0,295.67,439.92Z" transform="translate(-126.25 -194.41)"/></g><g id="neck1"><rect class="cls-17" x="157.11" y="200.1" width="24.63" height="44.61" rx="12.32" ry="12.32"/><rect class="cls-18" x="157.11" y="200.32" width="24.63" height="25.72" rx="12.32" ry="12.32"/></g><g id="up_face" data-name="up face"><path class="cls-18" d="M167.95,26.3h0a45.64,45.64,0,0,1,45.64,45.64v56.27a0,0,0,0,1,0,0H125.26a0,0,0,0,1,0,0V69A42.69,42.69,0,0,1,167.95,26.3Z"/><path class="cls-19" d="M297.2,224.8s-39.08-1-42.51,40.58C254.69,265.38,263.75,232.27,297.2,224.8Z" transform="translate(-126.25 -194.41)"/><path class="cls-20" d="M169.55,46.22h0A25.78,25.78,0,0,1,195.33,72v45.43a10.77,10.77,0,0,1-10.77,10.77H154.29a10.77,10.77,0,0,1-10.77-10.77V72.25a26,26,0,0,1,26-26Z"/></g><g id="down_face" data-name="down face"><path class="cls-17" d="M295.23,409.72h0a43.3,43.3,0,0,1-18.63-4.2A43.84,43.84,0,0,1,251.51,366V322.62h88.33v42.49A44.74,44.74,0,0,1,295.23,409.72Z" transform="translate(-126.25 -194.41)"/><circle class="cls-21" cx="139.8" cy="148.59" r="1.79"/><path class="cls-22" d="M335.71,331.06v28.65s.32,14.36-6.25,24.43c-7.08,10.83-16.71,16.39-27.59,20.61C301.87,404.75,333.84,392.43,335.71,331.06Z" transform="translate(-126.25 -194.41)"/><path class="cls-23" d="M295.8,323.05h0a25.78,25.78,0,0,1,25.78,25.78V384a10.77,10.77,0,0,1-10.77,10.77H280.54A10.77,10.77,0,0,1,269.77,384V349.08A26,26,0,0,1,295.8,323.05Z" transform="translate(465.1 523.43) rotate(180)"/></g><g id="line4"><rect class="cls-21" x="125.75" y="171.09" width="14.59" height="0.97" rx="0.48" ry="0.48"/><rect class="cls-21" x="139.31" y="149.69" width="1.03" height="22.38" rx="0.52" ry="0.52"/></g><g id="line3"><circle class="cls-21" cx="163.28" cy="190.61" r="1.79"/><rect class="cls-21" x="150.13" y="190.1" width="0.94" height="20.44" rx="0.47" ry="0.47"/><rect class="cls-21" x="150.13" y="190.1" width="12.44" height="0.97" rx="0.48" ry="0.48"/></g><g id="line2"><circle class="cls-21" cx="149.45" cy="144.33" r="1.79"/><rect class="cls-21" x="167" y="183.55" width="0.92" height="31.23" rx="0.46" ry="0.46"/><rect class="cls-21" x="149.1" y="183.55" width="18.81" height="1" rx="0.5" ry="0.5"/><rect class="cls-21" x="148.88" y="144.93" width="1.04" height="39.62" rx="0.52" ry="0.52"/></g><g id="line1"><circle class="cls-21" cx="144.75" cy="153.53" r="1.79"/><rect class="cls-21" x="144.31" y="153.53" width="0.88" height="53.72" rx="0.44" ry="0.44"/></g><g id="mouth"><rect class="cls-2" x="151.65" y="129.7" width="35.54" height="7.46" rx="3.73" ry="3.73"/><text class="cls-24" transform="translate(269.45 57.49)">PA</text></g></svg>