<svg id="up_face" data-name="up face" xmlns="http://www.w3.org/2000/svg" viewBox="0 0 89.33 102.91"><defs><style>.cls-1{fill:#20b790;}.cls-1,.cls-3{stroke:#231f20;stroke-miterlimit:10;}.cls-2{fill:#e9f5f3;}.cls-3{fill:#7dcbbb;}</style></defs><title>up face</title><path class="cls-1" d="M43.19.5h0A45.64,45.64,0,0,1,88.83,46.14v56.27a0,0,0,0,1,0,0H.5a0,0,0,0,1,0,0V43.19A42.69,42.69,0,0,1,43.19.5Z"/><path class="cls-2" d="M297.2,224.8s-39.08-1-42.51,40.58C254.69,265.38,263.75,232.27,297.2,224.8Z" transform="translate(-251.01 -220.2)"/><path class="cls-3" d="M44.79,20.42h0A25.78,25.78,0,0,1,70.57,46.21V91.64A10.77,10.77,0,0,1,59.8,102.41H29.53A10.77,10.77,0,0,1,18.76,91.64V46.45a26,26,0,0,1,26-26Z"/></svg>