<svg id="neck2" xmlns="http://www.w3.org/2000/svg" viewBox="0 0 94.54 94.54"><defs><style>.cls-1{fill:#7dccbb;}.cls-1,.cls-2,.cls-3,.cls-4,.cls-5,.cls-6,.cls-7,.cls-8{stroke:#151032;stroke-miterlimit:10;}.cls-2{fill:#bee4de;}.cls-3{fill:#e9f5f3;}.cls-4{fill:#fff8dc;}.cls-5{fill:#ffeea7;}.cls-6{fill:#fedb4e;}.cls-7{fill:#ffcd05;}.cls-8{fill:#e1b824;}</style></defs><title>neck2</title><path class="cls-1" d="M295.67,477a46.77,46.77,0,1,0-46.76-46.77A46.77,46.77,0,0,0,295.67,477Z" transform="translate(-248.41 -382.91)"/><path class="cls-2" d="M295.67,471.66a41.48,41.48,0,1,0-41.47-41.48A41.48,41.48,0,0,0,295.67,471.66Z" transform="translate(-248.41 -382.91)"/><path class="cls-3" d="M295.67,466.37a36.19,36.19,0,1,0-36.19-36.19A36.19,36.19,0,0,0,295.67,466.37Z" transform="translate(-248.41 -382.91)"/><path class="cls-4" d="M295.67,461.08a30.9,30.9,0,1,0-30.9-30.9A30.9,30.9,0,0,0,295.67,461.08Z" transform="translate(-248.41 -382.91)"/><path class="cls-5" d="M295.67,455.79a25.61,25.61,0,1,0-25.61-25.61A25.61,25.61,0,0,0,295.67,455.79Z" transform="translate(-248.41 -382.91)"/><path class="cls-6" d="M295.67,450.5a20.32,20.32,0,1,0-20.32-20.32A20.33,20.33,0,0,0,295.67,450.5Z" transform="translate(-248.41 -382.91)"/><path class="cls-7" d="M295.67,445.21a15,15,0,1,0-15-15A15,15,0,0,0,295.67,445.21Z" transform="translate(-248.41 -382.91)"/><path class="cls-8" d="M295.67,439.92a9.74,9.74,0,1,0-9.74-9.74A9.74,9.74,0,0,0,295.67,439.92Z" transform="translate(-248.41 -382.91)"/></svg>