<svg id="down_face" data-name="down face" xmlns="http://www.w3.org/2000/svg" viewBox="0 0 89.33 88.1"><defs><style>.cls-1{fill:#57c09e;}.cls-1,.cls-4{stroke:#231f20;stroke-miterlimit:10;}.cls-2{fill:#fff;}.cls-3{fill:#20b790;}.cls-4{fill:#e0b824;}</style></defs><title>down face</title><path class="cls-1" d="M295.23,409.72h0a43.3,43.3,0,0,1-18.63-4.2A43.84,43.84,0,0,1,251.51,366V322.62h88.33v42.49A44.74,44.74,0,0,1,295.23,409.72Z" transform="translate(-251.01 -322.12)"/><circle class="cls-2" cx="15.04" cy="20.87" r="1.79"/><path class="cls-3" d="M335.71,331.06v28.65s.32,14.36-6.25,24.43c-7.08,10.83-16.71,16.39-27.59,20.61C301.87,404.75,333.84,392.43,335.71,331.06Z" transform="translate(-251.01 -322.12)"/><path class="cls-4" d="M295.8,323.05h0a25.78,25.78,0,0,1,25.78,25.78V384a10.77,10.77,0,0,1-10.77,10.77H280.54A10.77,10.77,0,0,1,269.77,384V349.08A26,26,0,0,1,295.8,323.05Z" transform="translate(340.34 395.71) rotate(180)"/></svg>