<svg id="neck3" xmlns="http://www.w3.org/2000/svg" viewBox="0 0 181.21 208.88"><defs><style>.cls-1{fill:#59c09e;}.cls-1,.cls-2,.cls-3,.cls-4,.cls-5{stroke:#151032;stroke-linecap:round;stroke-linejoin:round;}.cls-2{fill:#21b890;}.cls-3{fill:#fedb4e;}.cls-4{fill:#ffcd05;}.cls-5{fill:#e1b824;}</style></defs><title>neck3</title><path class="cls-1" d="M295.68,534.12l28.12-46.61L295.68,470.9v63.22Z" transform="translate(-205.07 -325.74)"/><path class="cls-1" d="M295.68,442.6v23l28.12,16.59Z" transform="translate(-205.07 -325.74)"/><path class="cls-2" d="M323.8,487.51,295.68,470.9v29.38Z" transform="translate(-205.07 -325.74)"/><path class="cls-1" d="M295.68,500.28V470.9l-28.12,16.61,28.12,46.61Z" transform="translate(-205.07 -325.74)"/><path class="cls-1" d="M267.56,482.18l28.12-16.59v-23Z" transform="translate(-205.07 -325.74)"/><path class="cls-2" d="M295.68,500.28V470.9l-28.12,16.61Z" transform="translate(-205.07 -325.74)"/><path class="cls-3" d="M205.57,482.15l54.47,1,.34-32.64-25.47,14.69Z" transform="translate(-205.07 -325.74)"/><path class="cls-4" d="M284.92,436.39,265,447.88l-.32,32.63Z" transform="translate(-205.07 -325.74)"/><path class="cls-5" d="M260,483.18l.33-32.64-25.46,14.69Z" transform="translate(-205.07 -325.74)"/><path class="cls-3" d="M234.91,465.23l25.47-14.69-28.46-16-26.35,47.63Z" transform="translate(-205.07 -325.74)"/><path class="cls-4" d="M236.54,431.85l28.44,16,19.94-11.49Z" transform="translate(-205.07 -325.74)"/><path class="cls-5" d="M234.91,465.23l25.47-14.69-28.46-16Z" transform="translate(-205.07 -325.74)"/><path class="cls-1" d="M205.57,378.21l26.35,47.64,28.46-16-25.47-14.69Z" transform="translate(-205.07 -325.74)"/><path class="cls-1" d="M284.92,424,265,412.48l-28.44,16Z" transform="translate(-205.07 -325.74)"/><path class="cls-2" d="M231.92,425.85l28.45-16-25.46-14.69Z" transform="translate(-205.07 -325.74)"/><path class="cls-1" d="M234.91,395.13l25.47,14.69L260,377.19l-54.47,1Z" transform="translate(-205.07 -325.74)"/><path class="cls-1" d="M264.66,379.85l.32,32.63L284.92,424Z" transform="translate(-205.07 -325.74)"/><path class="cls-2" d="M234.91,395.13l25.46,14.69L260,377.19Z" transform="translate(-205.07 -325.74)"/><path class="cls-3" d="M295.68,326.24l-28.12,46.61,28.12,16.61V326.24Z" transform="translate(-205.07 -325.74)"/><path class="cls-4" d="M295.68,417.77v-23l-28.12-16.6Z" transform="translate(-205.07 -325.74)"/><path class="cls-5" d="M267.56,372.85l28.12,16.61V360.08Z" transform="translate(-205.07 -325.74)"/><path class="cls-3" d="M295.68,360.08v29.38l28.12-16.61-28.12-46.61Z" transform="translate(-205.07 -325.74)"/><path class="cls-4" d="M323.8,378.18l-28.12,16.6v23Z" transform="translate(-205.07 -325.74)"/><path class="cls-5" d="M295.68,360.08v29.38l28.12-16.61Z" transform="translate(-205.07 -325.74)"/><path class="cls-1" d="M385.78,378.21l-54.47-1L331,409.82l25.47-14.69Z" transform="translate(-205.07 -325.74)"/><path class="cls-1" d="M306.44,424l19.93-11.49.33-32.63Z" transform="translate(-205.07 -325.74)"/><path class="cls-2" d="M331.31,377.19,331,409.82l25.47-14.69Z" transform="translate(-205.07 -325.74)"/><path class="cls-1" d="M356.45,395.13,331,409.82l28.46,16,26.34-47.64Z" transform="translate(-205.07 -325.74)"/><path class="cls-1" d="M354.82,428.51l-28.45-16L306.44,424Z" transform="translate(-205.07 -325.74)"/><path class="cls-2" d="M356.45,395.13,331,409.82l28.46,16Z" transform="translate(-205.07 -325.74)"/><path class="cls-3" d="M385.78,482.15l-26.34-47.63-28.46,16,25.47,14.69Z" transform="translate(-205.07 -325.74)"/><path class="cls-4" d="M306.44,436.39l19.93,11.49,28.45-16Z" transform="translate(-205.07 -325.74)"/><path class="cls-5" d="M359.44,434.52l-28.46,16,25.47,14.69Z" transform="translate(-205.07 -325.74)"/><path class="cls-3" d="M356.45,465.23,331,450.54l.33,32.64,54.47-1Z" transform="translate(-205.07 -325.74)"/><path class="cls-4" d="M326.7,480.51l-.33-32.63-19.93-11.49Z" transform="translate(-205.07 -325.74)"/><path class="cls-5" d="M356.45,465.23,331,450.54l.33,32.64Z" transform="translate(-205.07 -325.74)"/></svg>